<svg  xmlns="http://www.w3.org/2000/svg" xmlns:xlink="http://www.w3.org/1999/xlink" width="1750" height="300" viewBox="0 0 1774 324"><path transform="translate(0 100)" d="M32.0312,-38.6719L32.0312,-51.5625L20.7031,-51.5625L20.7031,-38.6719L32.0312,-38.6719ZM57.4219,-35.9375L52.7344,-35.9375L52.7344,-47.2656L49.6094,-44.1406Q48.4375,-47.6562 47.2656,-49.2188Q53.5156,-54.6875 57.0312,-63.6719L61.3281,-61.7188Q59.7656,-57.8125 57.4219,-54.2969L57.4219,-35.9375ZM19.5312,-13.2812Q19.5312,-17.9688 17.1875,-29.6875L21.4844,-31.6406Q23.4375,-23.0469 24.6094,-14.8438L19.5312,-13.2812ZM37.5,-33.9844L16.0156,-33.9844L16.0156,-57.0312L37.5,-57.0312L37.5,-33.9844ZM38.6719,-64.4531L14.4531,-64.4531L14.4531,-70.3125L38.6719,-70.3125L38.6719,-64.4531ZM75.3906,-36.3281L70.3125,-36.3281Q70.3125,-38.6719 69.5312,-40.625L74.6094,-40.625Q75,-40.625 75,-52.3438L59.7656,-52.3438L59.7656,-57.0312L75,-57.0312L75,-62.8906L80.0781,-62.8906L80.0781,-57.0312L86.3281,-57.0312L86.3281,-52.3438L80.0781,-52.3438L79.6875,-38.6719Q78.5156,-36.3281 75.3906,-36.3281ZM68.75,-39.8438Q66.4062,-42.9688 60.9375,-47.6562L63.2812,-51.1719Q69.5312,-46.875 71.0938,-44.1406L68.75,-39.8438ZM53.9062,0.390625L49.2188,0.390625L49.2188,-32.8125L64.4531,-32.8125L64.8438,-37.8906L69.5312,-37.8906L68.75,-32.8125L83.5938,-32.8125L83.5938,-6.25Q83.5938,-1.95312 81.4453,-0.976562Q79.2969,-0 72.6562,-0Q72.6562,-2.34375 71.875,-4.6875L74.6094,-4.6875Q71.4844,-7.61719 66.0156,-11.3281Q62.8906,-7.03125 55.8594,-3.90625Q55.0781,-7.42188 54.2969,-7.8125Q62.8906,-11.3281 64.4531,-19.5312L68.75,-19.5312Q68.75,-17.5781 67.5781,-15.2344Q75,-10.5469 77.3438,-8.20312L75.1953,-4.6875L78.125,-4.6875Q78.5156,-4.6875 78.5156,-28.125L67.9688,-28.125L67.1875,-26.5625Q72.2656,-23.8281 78.125,-19.1406L76.1719,-15.2344Q71.875,-19.1406 65.625,-22.6562Q63.2812,-18.3594 55.8594,-15.625Q55.4688,-17.5781 54.2969,-19.5312Q61.3281,-21.875 63.2812,-28.125L53.9062,-28.125L53.9062,0.390625ZM90.2344,2.34375L90.2344,-78.5156L9.76562,-78.5156L9.76562,2.34375L90.2344,2.34375ZM94.9219,7.03125L5.07812,7.03125L5.07812,-82.8125L94.9219,-82.8125L94.9219,7.03125ZM42.1875,-0Q41.0156,-1.95312 37.5977,-4.29688Q38.9648,-6.34766 40.4785,-15.5762Q41.9922,-24.8047 41.7969,-70.3125L61.7188,-70.3125Q61.1328,-72.4609 59.8633,-75.6836L64.8438,-77.3438Q66.5039,-72.6562 67.5781,-70.3125L86.7188,-70.3125L86.7188,-64.8438L47.3633,-64.8438Q47.0703,-39.4531 46.6309,-27.6367Q46.1914,-15.8203 44.9707,-9.86328Q43.75,-3.90625 42.1875,-0ZM37.8906,-9.17969L14.0625,-3.125L13.2812,-9.375Q19.9219,-10.5469 26.9531,-12.5Q29.6875,-24.2188 30.4688,-31.6406L35.5469,-30.0781Q34.7656,-26.1719 33.9844,-21.6797Q33.2031,-17.1875 32.0312,-13.6719L37.5977,-15.332L37.8906,-9.17969Z"></path><path transform="translate(100 100)" d="M32.0312,-38.6719L32.0312,-51.5625L20.7031,-51.5625L20.7031,-38.6719L32.0312,-38.6719ZM57.4219,-35.9375L52.7344,-35.9375L52.7344,-47.2656L49.6094,-44.1406Q48.4375,-47.6562 47.2656,-49.2188Q53.5156,-54.6875 57.0312,-63.6719L61.3281,-61.7188Q59.7656,-57.8125 57.4219,-54.2969L57.4219,-35.9375ZM19.5312,-13.2812Q19.5312,-17.9688 17.1875,-29.6875L21.4844,-31.6406Q23.4375,-23.0469 24.6094,-14.8438L19.5312,-13.2812ZM37.5,-33.9844L16.0156,-33.9844L16.0156,-57.0312L37.5,-57.0312L37.5,-33.9844ZM38.6719,-64.4531L14.4531,-64.4531L14.4531,-70.3125L38.6719,-70.3125L38.6719,-64.4531ZM75.3906,-36.3281L70.3125,-36.3281Q70.3125,-38.6719 69.5312,-40.625L74.6094,-40.625Q75,-40.625 75,-52.3438L59.7656,-52.3438L59.7656,-57.0312L75,-57.0312L75,-62.8906L80.0781,-62.8906L80.0781,-57.0312L86.3281,-57.0312L86.3281,-52.3438L80.0781,-52.3438L79.6875,-38.6719Q78.5156,-36.3281 75.3906,-36.3281ZM68.75,-39.8438Q66.4062,-42.9688 60.9375,-47.6562L63.2812,-51.1719Q69.5312,-46.875 71.0938,-44.1406L68.75,-39.8438ZM53.9062,0.390625L49.2188,0.390625L49.2188,-32.8125L64.4531,-32.8125L64.8438,-37.8906L69.5312,-37.8906L68.75,-32.8125L83.5938,-32.8125L83.5938,-6.25Q83.5938,-1.95312 81.4453,-0.976562Q79.2969,-0 72.6562,-0Q72.6562,-2.34375 71.875,-4.6875L74.6094,-4.6875Q71.4844,-7.61719 66.0156,-11.3281Q62.8906,-7.03125 55.8594,-3.90625Q55.0781,-7.42188 54.2969,-7.8125Q62.8906,-11.3281 64.4531,-19.5312L68.75,-19.5312Q68.75,-17.5781 67.5781,-15.2344Q75,-10.5469 77.3438,-8.20312L75.1953,-4.6875L78.125,-4.6875Q78.5156,-4.6875 78.5156,-28.125L67.9688,-28.125L67.1875,-26.5625Q72.2656,-23.8281 78.125,-19.1406L76.1719,-15.2344Q71.875,-19.1406 65.625,-22.6562Q63.2812,-18.3594 55.8594,-15.625Q55.4688,-17.5781 54.2969,-19.5312Q61.3281,-21.875 63.2812,-28.125L53.9062,-28.125L53.9062,0.390625ZM90.2344,2.34375L90.2344,-78.5156L9.76562,-78.5156L9.76562,2.34375L90.2344,2.34375ZM94.9219,7.03125L5.07812,7.03125L5.07812,-82.8125L94.9219,-82.8125L94.9219,7.03125ZM42.1875,-0Q41.0156,-1.95312 37.5977,-4.29688Q38.9648,-6.34766 40.4785,-15.5762Q41.9922,-24.8047 41.7969,-70.3125L61.7188,-70.3125Q61.1328,-72.4609 59.8633,-75.6836L64.8438,-77.3438Q66.5039,-72.6562 67.5781,-70.3125L86.7188,-70.3125L86.7188,-64.8438L47.3633,-64.8438Q47.0703,-39.4531 46.6309,-27.6367Q46.1914,-15.8203 44.9707,-9.86328Q43.75,-3.90625 42.1875,-0ZM37.8906,-9.17969L14.0625,-3.125L13.2812,-9.375Q19.9219,-10.5469 26.9531,-12.5Q29.6875,-24.2188 30.4688,-31.6406L35.5469,-30.0781Q34.7656,-26.1719 33.9844,-21.6797Q33.2031,-17.1875 32.0312,-13.6719L37.5977,-15.332L37.8906,-9.17969Z"></path><path transform="translate(200 100)" d="M32.0312,-38.6719L32.0312,-51.5625L20.7031,-51.5625L20.7031,-38.6719L32.0312,-38.6719ZM57.4219,-35.9375L52.7344,-35.9375L52.7344,-47.2656L49.6094,-44.1406Q48.4375,-47.6562 47.2656,-49.2188Q53.5156,-54.6875 57.0312,-63.6719L61.3281,-61.7188Q59.7656,-57.8125 57.4219,-54.2969L57.4219,-35.9375ZM19.5312,-13.2812Q19.5312,-17.9688 17.1875,-29.6875L21.4844,-31.6406Q23.4375,-23.0469 24.6094,-14.8438L19.5312,-13.2812ZM37.5,-33.9844L16.0156,-33.9844L16.0156,-57.0312L37.5,-57.0312L37.5,-33.9844ZM38.6719,-64.4531L14.4531,-64.4531L14.4531,-70.3125L38.6719,-70.3125L38.6719,-64.4531ZM75.3906,-36.3281L70.3125,-36.3281Q70.3125,-38.6719 69.5312,-40.625L74.6094,-40.625Q75,-40.625 75,-52.3438L59.7656,-52.3438L59.7656,-57.0312L75,-57.0312L75,-62.8906L80.0781,-62.8906L80.0781,-57.0312L86.3281,-57.0312L86.3281,-52.3438L80.0781,-52.3438L79.6875,-38.6719Q78.5156,-36.3281 75.3906,-36.3281ZM68.75,-39.8438Q66.4062,-42.9688 60.9375,-47.6562L63.2812,-51.1719Q69.5312,-46.875 71.0938,-44.1406L68.75,-39.8438ZM53.9062,0.390625L49.2188,0.390625L49.2188,-32.8125L64.4531,-32.8125L64.8438,-37.8906L69.5312,-37.8906L68.75,-32.8125L83.5938,-32.8125L83.5938,-6.25Q83.5938,-1.95312 81.4453,-0.976562Q79.2969,-0 72.6562,-0Q72.6562,-2.34375 71.875,-4.6875L74.6094,-4.6875Q71.4844,-7.61719 66.0156,-11.3281Q62.8906,-7.03125 55.8594,-3.90625Q55.0781,-7.42188 54.2969,-7.8125Q62.8906,-11.3281 64.4531,-19.5312L68.75,-19.5312Q68.75,-17.5781 67.5781,-15.2344Q75,-10.5469 77.3438,-8.20312L75.1953,-4.6875L78.125,-4.6875Q78.5156,-4.6875 78.5156,-28.125L67.9688,-28.125L67.1875,-26.5625Q72.2656,-23.8281 78.125,-19.1406L76.1719,-15.2344Q71.875,-19.1406 65.625,-22.6562Q63.2812,-18.3594 55.8594,-15.625Q55.4688,-17.5781 54.2969,-19.5312Q61.3281,-21.875 63.2812,-28.125L53.9062,-28.125L53.9062,0.390625ZM90.2344,2.34375L90.2344,-78.5156L9.76562,-78.5156L9.76562,2.34375L90.2344,2.34375ZM94.9219,7.03125L5.07812,7.03125L5.07812,-82.8125L94.9219,-82.8125L94.9219,7.03125ZM42.1875,-0Q41.0156,-1.95312 37.5977,-4.29688Q38.9648,-6.34766 40.4785,-15.5762Q41.9922,-24.8047 41.7969,-70.3125L61.7188,-70.3125Q61.1328,-72.4609 59.8633,-75.6836L64.8438,-77.3438Q66.5039,-72.6562 67.5781,-70.3125L86.7188,-70.3125L86.7188,-64.8438L47.3633,-64.8438Q47.0703,-39.4531 46.6309,-27.6367Q46.1914,-15.8203 44.9707,-9.86328Q43.75,-3.90625 42.1875,-0ZM37.8906,-9.17969L14.0625,-3.125L13.2812,-9.375Q19.9219,-10.5469 26.9531,-12.5Q29.6875,-24.2188 30.4688,-31.6406L35.5469,-30.0781Q34.7656,-26.1719 33.9844,-21.6797Q33.2031,-17.1875 32.0312,-13.6719L37.5977,-15.332L37.8906,-9.17969Z"></path><path transform="translate(300 100)" d="M32.0312,-38.6719L32.0312,-51.5625L20.7031,-51.5625L20.7031,-38.6719L32.0312,-38.6719ZM57.4219,-35.9375L52.7344,-35.9375L52.7344,-47.2656L49.6094,-44.1406Q48.4375,-47.6562 47.2656,-49.2188Q53.5156,-54.6875 57.0312,-63.6719L61.3281,-61.7188Q59.7656,-57.8125 57.4219,-54.2969L57.4219,-35.9375ZM19.5312,-13.2812Q19.5312,-17.9688 17.1875,-29.6875L21.4844,-31.6406Q23.4375,-23.0469 24.6094,-14.8438L19.5312,-13.2812ZM37.5,-33.9844L16.0156,-33.9844L16.0156,-57.0312L37.5,-57.0312L37.5,-33.9844ZM38.6719,-64.4531L14.4531,-64.4531L14.4531,-70.3125L38.6719,-70.3125L38.6719,-64.4531ZM75.3906,-36.3281L70.3125,-36.3281Q70.3125,-38.6719 69.5312,-40.625L74.6094,-40.625Q75,-40.625 75,-52.3438L59.7656,-52.3438L59.7656,-57.0312L75,-57.0312L75,-62.8906L80.0781,-62.8906L80.0781,-57.0312L86.3281,-57.0312L86.3281,-52.3438L80.0781,-52.3438L79.6875,-38.6719Q78.5156,-36.3281 75.3906,-36.3281ZM68.75,-39.8438Q66.4062,-42.9688 60.9375,-47.6562L63.2812,-51.1719Q69.5312,-46.875 71.0938,-44.1406L68.75,-39.8438ZM53.9062,0.390625L49.2188,0.390625L49.2188,-32.8125L64.4531,-32.8125L64.8438,-37.8906L69.5312,-37.8906L68.75,-32.8125L83.5938,-32.8125L83.5938,-6.25Q83.5938,-1.95312 81.4453,-0.976562Q79.2969,-0 72.6562,-0Q72.6562,-2.34375 71.875,-4.6875L74.6094,-4.6875Q71.4844,-7.61719 66.0156,-11.3281Q62.8906,-7.03125 55.8594,-3.90625Q55.0781,-7.42188 54.2969,-7.8125Q62.8906,-11.3281 64.4531,-19.5312L68.75,-19.5312Q68.75,-17.5781 67.5781,-15.2344Q75,-10.5469 77.3438,-8.20312L75.1953,-4.6875L78.125,-4.6875Q78.5156,-4.6875 78.5156,-28.125L67.9688,-28.125L67.1875,-26.5625Q72.2656,-23.8281 78.125,-19.1406L76.1719,-15.2344Q71.875,-19.1406 65.625,-22.6562Q63.2812,-18.3594 55.8594,-15.625Q55.4688,-17.5781 54.2969,-19.5312Q61.3281,-21.875 63.2812,-28.125L53.9062,-28.125L53.9062,0.390625ZM90.2344,2.34375L90.2344,-78.5156L9.76562,-78.5156L9.76562,2.34375L90.2344,2.34375ZM94.9219,7.03125L5.07812,7.03125L5.07812,-82.8125L94.9219,-82.8125L94.9219,7.03125ZM42.1875,-0Q41.0156,-1.95312 37.5977,-4.29688Q38.9648,-6.34766 40.4785,-15.5762Q41.9922,-24.8047 41.7969,-70.3125L61.7188,-70.3125Q61.1328,-72.4609 59.8633,-75.6836L64.8438,-77.3438Q66.5039,-72.6562 67.5781,-70.3125L86.7188,-70.3125L86.7188,-64.8438L47.3633,-64.8438Q47.0703,-39.4531 46.6309,-27.6367Q46.1914,-15.8203 44.9707,-9.86328Q43.75,-3.90625 42.1875,-0ZM37.8906,-9.17969L14.0625,-3.125L13.2812,-9.375Q19.9219,-10.5469 26.9531,-12.5Q29.6875,-24.2188 30.4688,-31.6406L35.5469,-30.0781Q34.7656,-26.1719 33.9844,-21.6797Q33.2031,-17.1875 32.0312,-13.6719L37.5977,-15.332L37.8906,-9.17969Z"></path><path transform="translate(400 100)" d="M32.0312,-38.6719L32.0312,-51.5625L20.7031,-51.5625L20.7031,-38.6719L32.0312,-38.6719ZM57.4219,-35.9375L52.7344,-35.9375L52.7344,-47.2656L49.6094,-44.1406Q48.4375,-47.6562 47.2656,-49.2188Q53.5156,-54.6875 57.0312,-63.6719L61.3281,-61.7188Q59.7656,-57.8125 57.4219,-54.2969L57.4219,-35.9375ZM19.5312,-13.2812Q19.5312,-17.9688 17.1875,-29.6875L21.4844,-31.6406Q23.4375,-23.0469 24.6094,-14.8438L19.5312,-13.2812ZM37.5,-33.9844L16.0156,-33.9844L16.0156,-57.0312L37.5,-57.0312L37.5,-33.9844ZM38.6719,-64.4531L14.4531,-64.4531L14.4531,-70.3125L38.6719,-70.3125L38.6719,-64.4531ZM75.3906,-36.3281L70.3125,-36.3281Q70.3125,-38.6719 69.5312,-40.625L74.6094,-40.625Q75,-40.625 75,-52.3438L59.7656,-52.3438L59.7656,-57.0312L75,-57.0312L75,-62.8906L80.0781,-62.8906L80.0781,-57.0312L86.3281,-57.0312L86.3281,-52.3438L80.0781,-52.3438L79.6875,-38.6719Q78.5156,-36.3281 75.3906,-36.3281ZM68.75,-39.8438Q66.4062,-42.9688 60.9375,-47.6562L63.2812,-51.1719Q69.5312,-46.875 71.0938,-44.1406L68.75,-39.8438ZM53.9062,0.390625L49.2188,0.390625L49.2188,-32.8125L64.4531,-32.8125L64.8438,-37.8906L69.5312,-37.8906L68.75,-32.8125L83.5938,-32.8125L83.5938,-6.25Q83.5938,-1.95312 81.4453,-0.976562Q79.2969,-0 72.6562,-0Q72.6562,-2.34375 71.875,-4.6875L74.6094,-4.6875Q71.4844,-7.61719 66.0156,-11.3281Q62.8906,-7.03125 55.8594,-3.90625Q55.0781,-7.42188 54.2969,-7.8125Q62.8906,-11.3281 64.4531,-19.5312L68.75,-19.5312Q68.75,-17.5781 67.5781,-15.2344Q75,-10.5469 77.3438,-8.20312L75.1953,-4.6875L78.125,-4.6875Q78.5156,-4.6875 78.5156,-28.125L67.9688,-28.125L67.1875,-26.5625Q72.2656,-23.8281 78.125,-19.1406L76.1719,-15.2344Q71.875,-19.1406 65.625,-22.6562Q63.2812,-18.3594 55.8594,-15.625Q55.4688,-17.5781 54.2969,-19.5312Q61.3281,-21.875 63.2812,-28.125L53.9062,-28.125L53.9062,0.390625ZM90.2344,2.34375L90.2344,-78.5156L9.76562,-78.5156L9.76562,2.34375L90.2344,2.34375ZM94.9219,7.03125L5.07812,7.03125L5.07812,-82.8125L94.9219,-82.8125L94.9219,7.03125ZM42.1875,-0Q41.0156,-1.95312 37.5977,-4.29688Q38.9648,-6.34766 40.4785,-15.5762Q41.9922,-24.8047 41.7969,-70.3125L61.7188,-70.3125Q61.1328,-72.4609 59.8633,-75.6836L64.8438,-77.3438Q66.5039,-72.6562 67.5781,-70.3125L86.7188,-70.3125L86.7188,-64.8438L47.3633,-64.8438Q47.0703,-39.4531 46.6309,-27.6367Q46.1914,-15.8203 44.9707,-9.86328Q43.75,-3.90625 42.1875,-0ZM37.8906,-9.17969L14.0625,-3.125L13.2812,-9.375Q19.9219,-10.5469 26.9531,-12.5Q29.6875,-24.2188 30.4688,-31.6406L35.5469,-30.0781Q34.7656,-26.1719 33.9844,-21.6797Q33.2031,-17.1875 32.0312,-13.6719L37.5977,-15.332L37.8906,-9.17969Z"></path><path transform="translate(500 100)" d="M32.0312,-38.6719L32.0312,-51.5625L20.7031,-51.5625L20.7031,-38.6719L32.0312,-38.6719ZM57.4219,-35.9375L52.7344,-35.9375L52.7344,-47.2656L49.6094,-44.1406Q48.4375,-47.6562 47.2656,-49.2188Q53.5156,-54.6875 57.0312,-63.6719L61.3281,-61.7188Q59.7656,-57.8125 57.4219,-54.2969L57.4219,-35.9375ZM19.5312,-13.2812Q19.5312,-17.9688 17.1875,-29.6875L21.4844,-31.6406Q23.4375,-23.0469 24.6094,-14.8438L19.5312,-13.2812ZM37.5,-33.9844L16.0156,-33.9844L16.0156,-57.0312L37.5,-57.0312L37.5,-33.9844ZM38.6719,-64.4531L14.4531,-64.4531L14.4531,-70.3125L38.6719,-70.3125L38.6719,-64.4531ZM75.3906,-36.3281L70.3125,-36.3281Q70.3125,-38.6719 69.5312,-40.625L74.6094,-40.625Q75,-40.625 75,-52.3438L59.7656,-52.3438L59.7656,-57.0312L75,-57.0312L75,-62.8906L80.0781,-62.8906L80.0781,-57.0312L86.3281,-57.0312L86.3281,-52.3438L80.0781,-52.3438L79.6875,-38.6719Q78.5156,-36.3281 75.3906,-36.3281ZM68.75,-39.8438Q66.4062,-42.9688 60.9375,-47.6562L63.2812,-51.1719Q69.5312,-46.875 71.0938,-44.1406L68.75,-39.8438ZM53.9062,0.390625L49.2188,0.390625L49.2188,-32.8125L64.4531,-32.8125L64.8438,-37.8906L69.5312,-37.8906L68.75,-32.8125L83.5938,-32.8125L83.5938,-6.25Q83.5938,-1.95312 81.4453,-0.976562Q79.2969,-0 72.6562,-0Q72.6562,-2.34375 71.875,-4.6875L74.6094,-4.6875Q71.4844,-7.61719 66.0156,-11.3281Q62.8906,-7.03125 55.8594,-3.90625Q55.0781,-7.42188 54.2969,-7.8125Q62.8906,-11.3281 64.4531,-19.5312L68.75,-19.5312Q68.75,-17.5781 67.5781,-15.2344Q75,-10.5469 77.3438,-8.20312L75.1953,-4.6875L78.125,-4.6875Q78.5156,-4.6875 78.5156,-28.125L67.9688,-28.125L67.1875,-26.5625Q72.2656,-23.8281 78.125,-19.1406L76.1719,-15.2344Q71.875,-19.1406 65.625,-22.6562Q63.2812,-18.3594 55.8594,-15.625Q55.4688,-17.5781 54.2969,-19.5312Q61.3281,-21.875 63.2812,-28.125L53.9062,-28.125L53.9062,0.390625ZM90.2344,2.34375L90.2344,-78.5156L9.76562,-78.5156L9.76562,2.34375L90.2344,2.34375ZM94.9219,7.03125L5.07812,7.03125L5.07812,-82.8125L94.9219,-82.8125L94.9219,7.03125ZM42.1875,-0Q41.0156,-1.95312 37.5977,-4.29688Q38.9648,-6.34766 40.4785,-15.5762Q41.9922,-24.8047 41.7969,-70.3125L61.7188,-70.3125Q61.1328,-72.4609 59.8633,-75.6836L64.8438,-77.3438Q66.5039,-72.6562 67.5781,-70.3125L86.7188,-70.3125L86.7188,-64.8438L47.3633,-64.8438Q47.0703,-39.4531 46.6309,-27.6367Q46.1914,-15.8203 44.9707,-9.86328Q43.75,-3.90625 42.1875,-0ZM37.8906,-9.17969L14.0625,-3.125L13.2812,-9.375Q19.9219,-10.5469 26.9531,-12.5Q29.6875,-24.2188 30.4688,-31.6406L35.5469,-30.0781Q34.7656,-26.1719 33.9844,-21.6797Q33.2031,-17.1875 32.0312,-13.6719L37.5977,-15.332L37.8906,-9.17969Z"></path><path transform="translate(0 200)" d="M32.0312,-38.6719L32.0312,-51.5625L20.7031,-51.5625L20.7031,-38.6719L32.0312,-38.6719ZM57.4219,-35.9375L52.7344,-35.9375L52.7344,-47.2656L49.6094,-44.1406Q48.4375,-47.6562 47.2656,-49.2188Q53.5156,-54.6875 57.0312,-63.6719L61.3281,-61.7188Q59.7656,-57.8125 57.4219,-54.2969L57.4219,-35.9375ZM19.5312,-13.2812Q19.5312,-17.9688 17.1875,-29.6875L21.4844,-31.6406Q23.4375,-23.0469 24.6094,-14.8438L19.5312,-13.2812ZM37.5,-33.9844L16.0156,-33.9844L16.0156,-57.0312L37.5,-57.0312L37.5,-33.9844ZM38.6719,-64.4531L14.4531,-64.4531L14.4531,-70.3125L38.6719,-70.3125L38.6719,-64.4531ZM75.3906,-36.3281L70.3125,-36.3281Q70.3125,-38.6719 69.5312,-40.625L74.6094,-40.625Q75,-40.625 75,-52.3438L59.7656,-52.3438L59.7656,-57.0312L75,-57.0312L75,-62.8906L80.0781,-62.8906L80.0781,-57.0312L86.3281,-57.0312L86.3281,-52.3438L80.0781,-52.3438L79.6875,-38.6719Q78.5156,-36.3281 75.3906,-36.3281ZM68.75,-39.8438Q66.4062,-42.9688 60.9375,-47.6562L63.2812,-51.1719Q69.5312,-46.875 71.0938,-44.1406L68.75,-39.8438ZM53.9062,0.390625L49.2188,0.390625L49.2188,-32.8125L64.4531,-32.8125L64.8438,-37.8906L69.5312,-37.8906L68.75,-32.8125L83.5938,-32.8125L83.5938,-6.25Q83.5938,-1.95312 81.4453,-0.976562Q79.2969,-0 72.6562,-0Q72.6562,-2.34375 71.875,-4.6875L74.6094,-4.6875Q71.4844,-7.61719 66.0156,-11.3281Q62.8906,-7.03125 55.8594,-3.90625Q55.0781,-7.42188 54.2969,-7.8125Q62.8906,-11.3281 64.4531,-19.5312L68.75,-19.5312Q68.75,-17.5781 67.5781,-15.2344Q75,-10.5469 77.3438,-8.20312L75.1953,-4.6875L78.125,-4.6875Q78.5156,-4.6875 78.5156,-28.125L67.9688,-28.125L67.1875,-26.5625Q72.2656,-23.8281 78.125,-19.1406L76.1719,-15.2344Q71.875,-19.1406 65.625,-22.6562Q63.2812,-18.3594 55.8594,-15.625Q55.4688,-17.5781 54.2969,-19.5312Q61.3281,-21.875 63.2812,-28.125L53.9062,-28.125L53.9062,0.390625ZM90.2344,2.34375L90.2344,-78.5156L9.76562,-78.5156L9.76562,2.34375L90.2344,2.34375ZM94.9219,7.03125L5.07812,7.03125L5.07812,-82.8125L94.9219,-82.8125L94.9219,7.03125ZM42.1875,-0Q41.0156,-1.95312 37.5977,-4.29688Q38.9648,-6.34766 40.4785,-15.5762Q41.9922,-24.8047 41.7969,-70.3125L61.7188,-70.3125Q61.1328,-72.4609 59.8633,-75.6836L64.8438,-77.3438Q66.5039,-72.6562 67.5781,-70.3125L86.7188,-70.3125L86.7188,-64.8438L47.3633,-64.8438Q47.0703,-39.4531 46.6309,-27.6367Q46.1914,-15.8203 44.9707,-9.86328Q43.75,-3.90625 42.1875,-0ZM37.8906,-9.17969L14.0625,-3.125L13.2812,-9.375Q19.9219,-10.5469 26.9531,-12.5Q29.6875,-24.2188 30.4688,-31.6406L35.5469,-30.0781Q34.7656,-26.1719 33.9844,-21.6797Q33.2031,-17.1875 32.0312,-13.6719L37.5977,-15.332L37.8906,-9.17969Z"></path><path transform="translate(100 200)" d="M32.0312,-38.6719L32.0312,-51.5625L20.7031,-51.5625L20.7031,-38.6719L32.0312,-38.6719ZM57.4219,-35.9375L52.7344,-35.9375L52.7344,-47.2656L49.6094,-44.1406Q48.4375,-47.6562 47.2656,-49.2188Q53.5156,-54.6875 57.0312,-63.6719L61.3281,-61.7188Q59.7656,-57.8125 57.4219,-54.2969L57.4219,-35.9375ZM19.5312,-13.2812Q19.5312,-17.9688 17.1875,-29.6875L21.4844,-31.6406Q23.4375,-23.0469 24.6094,-14.8438L19.5312,-13.2812ZM37.5,-33.9844L16.0156,-33.9844L16.0156,-57.0312L37.5,-57.0312L37.5,-33.9844ZM38.6719,-64.4531L14.4531,-64.4531L14.4531,-70.3125L38.6719,-70.3125L38.6719,-64.4531ZM75.3906,-36.3281L70.3125,-36.3281Q70.3125,-38.6719 69.5312,-40.625L74.6094,-40.625Q75,-40.625 75,-52.3438L59.7656,-52.3438L59.7656,-57.0312L75,-57.0312L75,-62.8906L80.0781,-62.8906L80.0781,-57.0312L86.3281,-57.0312L86.3281,-52.3438L80.0781,-52.3438L79.6875,-38.6719Q78.5156,-36.3281 75.3906,-36.3281ZM68.75,-39.8438Q66.4062,-42.9688 60.9375,-47.6562L63.2812,-51.1719Q69.5312,-46.875 71.0938,-44.1406L68.75,-39.8438ZM53.9062,0.390625L49.2188,0.390625L49.2188,-32.8125L64.4531,-32.8125L64.8438,-37.8906L69.5312,-37.8906L68.75,-32.8125L83.5938,-32.8125L83.5938,-6.25Q83.5938,-1.95312 81.4453,-0.976562Q79.2969,-0 72.6562,-0Q72.6562,-2.34375 71.875,-4.6875L74.6094,-4.6875Q71.4844,-7.61719 66.0156,-11.3281Q62.8906,-7.03125 55.8594,-3.90625Q55.0781,-7.42188 54.2969,-7.8125Q62.8906,-11.3281 64.4531,-19.5312L68.75,-19.5312Q68.75,-17.5781 67.5781,-15.2344Q75,-10.5469 77.3438,-8.20312L75.1953,-4.6875L78.125,-4.6875Q78.5156,-4.6875 78.5156,-28.125L67.9688,-28.125L67.1875,-26.5625Q72.2656,-23.8281 78.125,-19.1406L76.1719,-15.2344Q71.875,-19.1406 65.625,-22.6562Q63.2812,-18.3594 55.8594,-15.625Q55.4688,-17.5781 54.2969,-19.5312Q61.3281,-21.875 63.2812,-28.125L53.9062,-28.125L53.9062,0.390625ZM90.2344,2.34375L90.2344,-78.5156L9.76562,-78.5156L9.76562,2.34375L90.2344,2.34375ZM94.9219,7.03125L5.07812,7.03125L5.07812,-82.8125L94.9219,-82.8125L94.9219,7.03125ZM42.1875,-0Q41.0156,-1.95312 37.5977,-4.29688Q38.9648,-6.34766 40.4785,-15.5762Q41.9922,-24.8047 41.7969,-70.3125L61.7188,-70.3125Q61.1328,-72.4609 59.8633,-75.6836L64.8438,-77.3438Q66.5039,-72.6562 67.5781,-70.3125L86.7188,-70.3125L86.7188,-64.8438L47.3633,-64.8438Q47.0703,-39.4531 46.6309,-27.6367Q46.1914,-15.8203 44.9707,-9.86328Q43.75,-3.90625 42.1875,-0ZM37.8906,-9.17969L14.0625,-3.125L13.2812,-9.375Q19.9219,-10.5469 26.9531,-12.5Q29.6875,-24.2188 30.4688,-31.6406L35.5469,-30.0781Q34.7656,-26.1719 33.9844,-21.6797Q33.2031,-17.1875 32.0312,-13.6719L37.5977,-15.332L37.8906,-9.17969Z"></path><path transform="translate(200 200)" d="M32.0312,-38.6719L32.0312,-51.5625L20.7031,-51.5625L20.7031,-38.6719L32.0312,-38.6719ZM57.4219,-35.9375L52.7344,-35.9375L52.7344,-47.2656L49.6094,-44.1406Q48.4375,-47.6562 47.2656,-49.2188Q53.5156,-54.6875 57.0312,-63.6719L61.3281,-61.7188Q59.7656,-57.8125 57.4219,-54.2969L57.4219,-35.9375ZM19.5312,-13.2812Q19.5312,-17.9688 17.1875,-29.6875L21.4844,-31.6406Q23.4375,-23.0469 24.6094,-14.8438L19.5312,-13.2812ZM37.5,-33.9844L16.0156,-33.9844L16.0156,-57.0312L37.5,-57.0312L37.5,-33.9844ZM38.6719,-64.4531L14.4531,-64.4531L14.4531,-70.3125L38.6719,-70.3125L38.6719,-64.4531ZM75.3906,-36.3281L70.3125,-36.3281Q70.3125,-38.6719 69.5312,-40.625L74.6094,-40.625Q75,-40.625 75,-52.3438L59.7656,-52.3438L59.7656,-57.0312L75,-57.0312L75,-62.8906L80.0781,-62.8906L80.0781,-57.0312L86.3281,-57.0312L86.3281,-52.3438L80.0781,-52.3438L79.6875,-38.6719Q78.5156,-36.3281 75.3906,-36.3281ZM68.75,-39.8438Q66.4062,-42.9688 60.9375,-47.6562L63.2812,-51.1719Q69.5312,-46.875 71.0938,-44.1406L68.75,-39.8438ZM53.9062,0.390625L49.2188,0.390625L49.2188,-32.8125L64.4531,-32.8125L64.8438,-37.8906L69.5312,-37.8906L68.75,-32.8125L83.5938,-32.8125L83.5938,-6.25Q83.5938,-1.95312 81.4453,-0.976562Q79.2969,-0 72.6562,-0Q72.6562,-2.34375 71.875,-4.6875L74.6094,-4.6875Q71.4844,-7.61719 66.0156,-11.3281Q62.8906,-7.03125 55.8594,-3.90625Q55.0781,-7.42188 54.2969,-7.8125Q62.8906,-11.3281 64.4531,-19.5312L68.75,-19.5312Q68.75,-17.5781 67.5781,-15.2344Q75,-10.5469 77.3438,-8.20312L75.1953,-4.6875L78.125,-4.6875Q78.5156,-4.6875 78.5156,-28.125L67.9688,-28.125L67.1875,-26.5625Q72.2656,-23.8281 78.125,-19.1406L76.1719,-15.2344Q71.875,-19.1406 65.625,-22.6562Q63.2812,-18.3594 55.8594,-15.625Q55.4688,-17.5781 54.2969,-19.5312Q61.3281,-21.875 63.2812,-28.125L53.9062,-28.125L53.9062,0.390625ZM90.2344,2.34375L90.2344,-78.5156L9.76562,-78.5156L9.76562,2.34375L90.2344,2.34375ZM94.9219,7.03125L5.07812,7.03125L5.07812,-82.8125L94.9219,-82.8125L94.9219,7.03125ZM42.1875,-0Q41.0156,-1.95312 37.5977,-4.29688Q38.9648,-6.34766 40.4785,-15.5762Q41.9922,-24.8047 41.7969,-70.3125L61.7188,-70.3125Q61.1328,-72.4609 59.8633,-75.6836L64.8438,-77.3438Q66.5039,-72.6562 67.5781,-70.3125L86.7188,-70.3125L86.7188,-64.8438L47.3633,-64.8438Q47.0703,-39.4531 46.6309,-27.6367Q46.1914,-15.8203 44.9707,-9.86328Q43.75,-3.90625 42.1875,-0ZM37.8906,-9.17969L14.0625,-3.125L13.2812,-9.375Q19.9219,-10.5469 26.9531,-12.5Q29.6875,-24.2188 30.4688,-31.6406L35.5469,-30.0781Q34.7656,-26.1719 33.9844,-21.6797Q33.2031,-17.1875 32.0312,-13.6719L37.5977,-15.332L37.8906,-9.17969Z"></path><path transform="translate(300 200)" d=""></path><path transform="translate(350 200)" d="M32.0312,-38.6719L32.0312,-51.5625L20.7031,-51.5625L20.7031,-38.6719L32.0312,-38.6719ZM57.4219,-35.9375L52.7344,-35.9375L52.7344,-47.2656L49.6094,-44.1406Q48.4375,-47.6562 47.2656,-49.2188Q53.5156,-54.6875 57.0312,-63.6719L61.3281,-61.7188Q59.7656,-57.8125 57.4219,-54.2969L57.4219,-35.9375ZM19.5312,-13.2812Q19.5312,-17.9688 17.1875,-29.6875L21.4844,-31.6406Q23.4375,-23.0469 24.6094,-14.8438L19.5312,-13.2812ZM37.5,-33.9844L16.0156,-33.9844L16.0156,-57.0312L37.5,-57.0312L37.5,-33.9844ZM38.6719,-64.4531L14.4531,-64.4531L14.4531,-70.3125L38.6719,-70.3125L38.6719,-64.4531ZM75.3906,-36.3281L70.3125,-36.3281Q70.3125,-38.6719 69.5312,-40.625L74.6094,-40.625Q75,-40.625 75,-52.3438L59.7656,-52.3438L59.7656,-57.0312L75,-57.0312L75,-62.8906L80.0781,-62.8906L80.0781,-57.0312L86.3281,-57.0312L86.3281,-52.3438L80.0781,-52.3438L79.6875,-38.6719Q78.5156,-36.3281 75.3906,-36.3281ZM68.75,-39.8438Q66.4062,-42.9688 60.9375,-47.6562L63.2812,-51.1719Q69.5312,-46.875 71.0938,-44.1406L68.75,-39.8438ZM53.9062,0.390625L49.2188,0.390625L49.2188,-32.8125L64.4531,-32.8125L64.8438,-37.8906L69.5312,-37.8906L68.75,-32.8125L83.5938,-32.8125L83.5938,-6.25Q83.5938,-1.95312 81.4453,-0.976562Q79.2969,-0 72.6562,-0Q72.6562,-2.34375 71.875,-4.6875L74.6094,-4.6875Q71.4844,-7.61719 66.0156,-11.3281Q62.8906,-7.03125 55.8594,-3.90625Q55.0781,-7.42188 54.2969,-7.8125Q62.8906,-11.3281 64.4531,-19.5312L68.75,-19.5312Q68.75,-17.5781 67.5781,-15.2344Q75,-10.5469 77.3438,-8.20312L75.1953,-4.6875L78.125,-4.6875Q78.5156,-4.6875 78.5156,-28.125L67.9688,-28.125L67.1875,-26.5625Q72.2656,-23.8281 78.125,-19.1406L76.1719,-15.2344Q71.875,-19.1406 65.625,-22.6562Q63.2812,-18.3594 55.8594,-15.625Q55.4688,-17.5781 54.2969,-19.5312Q61.3281,-21.875 63.2812,-28.125L53.9062,-28.125L53.9062,0.390625ZM90.2344,2.34375L90.2344,-78.5156L9.76562,-78.5156L9.76562,2.34375L90.2344,2.34375ZM94.9219,7.03125L5.07812,7.03125L5.07812,-82.8125L94.9219,-82.8125L94.9219,7.03125ZM42.1875,-0Q41.0156,-1.95312 37.5977,-4.29688Q38.9648,-6.34766 40.4785,-15.5762Q41.9922,-24.8047 41.7969,-70.3125L61.7188,-70.3125Q61.1328,-72.4609 59.8633,-75.6836L64.8438,-77.3438Q66.5039,-72.6562 67.5781,-70.3125L86.7188,-70.3125L86.7188,-64.8438L47.3633,-64.8438Q47.0703,-39.4531 46.6309,-27.6367Q46.1914,-15.8203 44.9707,-9.86328Q43.75,-3.90625 42.1875,-0ZM37.8906,-9.17969L14.0625,-3.125L13.2812,-9.375Q19.9219,-10.5469 26.9531,-12.5Q29.6875,-24.2188 30.4688,-31.6406L35.5469,-30.0781Q34.7656,-26.1719 33.9844,-21.6797Q33.2031,-17.1875 32.0312,-13.6719L37.5977,-15.332L37.8906,-9.17969Z"></path><path transform="translate(450 200)" d="M32.0312,-38.6719L32.0312,-51.5625L20.7031,-51.5625L20.7031,-38.6719L32.0312,-38.6719ZM57.4219,-35.9375L52.7344,-35.9375L52.7344,-47.2656L49.6094,-44.1406Q48.4375,-47.6562 47.2656,-49.2188Q53.5156,-54.6875 57.0312,-63.6719L61.3281,-61.7188Q59.7656,-57.8125 57.4219,-54.2969L57.4219,-35.9375ZM19.5312,-13.2812Q19.5312,-17.9688 17.1875,-29.6875L21.4844,-31.6406Q23.4375,-23.0469 24.6094,-14.8438L19.5312,-13.2812ZM37.5,-33.9844L16.0156,-33.9844L16.0156,-57.0312L37.5,-57.0312L37.5,-33.9844ZM38.6719,-64.4531L14.4531,-64.4531L14.4531,-70.3125L38.6719,-70.3125L38.6719,-64.4531ZM75.3906,-36.3281L70.3125,-36.3281Q70.3125,-38.6719 69.5312,-40.625L74.6094,-40.625Q75,-40.625 75,-52.3438L59.7656,-52.3438L59.7656,-57.0312L75,-57.0312L75,-62.8906L80.0781,-62.8906L80.0781,-57.0312L86.3281,-57.0312L86.3281,-52.3438L80.0781,-52.3438L79.6875,-38.6719Q78.5156,-36.3281 75.3906,-36.3281ZM68.75,-39.8438Q66.4062,-42.9688 60.9375,-47.6562L63.2812,-51.1719Q69.5312,-46.875 71.0938,-44.1406L68.75,-39.8438ZM53.9062,0.390625L49.2188,0.390625L49.2188,-32.8125L64.4531,-32.8125L64.8438,-37.8906L69.5312,-37.8906L68.75,-32.8125L83.5938,-32.8125L83.5938,-6.25Q83.5938,-1.95312 81.4453,-0.976562Q79.2969,-0 72.6562,-0Q72.6562,-2.34375 71.875,-4.6875L74.6094,-4.6875Q71.4844,-7.61719 66.0156,-11.3281Q62.8906,-7.03125 55.8594,-3.90625Q55.0781,-7.42188 54.2969,-7.8125Q62.8906,-11.3281 64.4531,-19.5312L68.75,-19.5312Q68.75,-17.5781 67.5781,-15.2344Q75,-10.5469 77.3438,-8.20312L75.1953,-4.6875L78.125,-4.6875Q78.5156,-4.6875 78.5156,-28.125L67.9688,-28.125L67.1875,-26.5625Q72.2656,-23.8281 78.125,-19.1406L76.1719,-15.2344Q71.875,-19.1406 65.625,-22.6562Q63.2812,-18.3594 55.8594,-15.625Q55.4688,-17.5781 54.2969,-19.5312Q61.3281,-21.875 63.2812,-28.125L53.9062,-28.125L53.9062,0.390625ZM90.2344,2.34375L90.2344,-78.5156L9.76562,-78.5156L9.76562,2.34375L90.2344,2.34375ZM94.9219,7.03125L5.07812,7.03125L5.07812,-82.8125L94.9219,-82.8125L94.9219,7.03125ZM42.1875,-0Q41.0156,-1.95312 37.5977,-4.29688Q38.9648,-6.34766 40.4785,-15.5762Q41.9922,-24.8047 41.7969,-70.3125L61.7188,-70.3125Q61.1328,-72.4609 59.8633,-75.6836L64.8438,-77.3438Q66.5039,-72.6562 67.5781,-70.3125L86.7188,-70.3125L86.7188,-64.8438L47.3633,-64.8438Q47.0703,-39.4531 46.6309,-27.6367Q46.1914,-15.8203 44.9707,-9.86328Q43.75,-3.90625 42.1875,-0ZM37.8906,-9.17969L14.0625,-3.125L13.2812,-9.375Q19.9219,-10.5469 26.9531,-12.5Q29.6875,-24.2188 30.4688,-31.6406L35.5469,-30.0781Q34.7656,-26.1719 33.9844,-21.6797Q33.2031,-17.1875 32.0312,-13.6719L37.5977,-15.332L37.8906,-9.17969Z"></path><path transform="translate(550 200)" d="M32.0312,-38.6719L32.0312,-51.5625L20.7031,-51.5625L20.7031,-38.6719L32.0312,-38.6719ZM57.4219,-35.9375L52.7344,-35.9375L52.7344,-47.2656L49.6094,-44.1406Q48.4375,-47.6562 47.2656,-49.2188Q53.5156,-54.6875 57.0312,-63.6719L61.3281,-61.7188Q59.7656,-57.8125 57.4219,-54.2969L57.4219,-35.9375ZM19.5312,-13.2812Q19.5312,-17.9688 17.1875,-29.6875L21.4844,-31.6406Q23.4375,-23.0469 24.6094,-14.8438L19.5312,-13.2812ZM37.5,-33.9844L16.0156,-33.9844L16.0156,-57.0312L37.5,-57.0312L37.5,-33.9844ZM38.6719,-64.4531L14.4531,-64.4531L14.4531,-70.3125L38.6719,-70.3125L38.6719,-64.4531ZM75.3906,-36.3281L70.3125,-36.3281Q70.3125,-38.6719 69.5312,-40.625L74.6094,-40.625Q75,-40.625 75,-52.3438L59.7656,-52.3438L59.7656,-57.0312L75,-57.0312L75,-62.8906L80.0781,-62.8906L80.0781,-57.0312L86.3281,-57.0312L86.3281,-52.3438L80.0781,-52.3438L79.6875,-38.6719Q78.5156,-36.3281 75.3906,-36.3281ZM68.75,-39.8438Q66.4062,-42.9688 60.9375,-47.6562L63.2812,-51.1719Q69.5312,-46.875 71.0938,-44.1406L68.75,-39.8438ZM53.9062,0.390625L49.2188,0.390625L49.2188,-32.8125L64.4531,-32.8125L64.8438,-37.8906L69.5312,-37.8906L68.75,-32.8125L83.5938,-32.8125L83.5938,-6.25Q83.5938,-1.95312 81.4453,-0.976562Q79.2969,-0 72.6562,-0Q72.6562,-2.34375 71.875,-4.6875L74.6094,-4.6875Q71.4844,-7.61719 66.0156,-11.3281Q62.8906,-7.03125 55.8594,-3.90625Q55.0781,-7.42188 54.2969,-7.8125Q62.8906,-11.3281 64.4531,-19.5312L68.75,-19.5312Q68.75,-17.5781 67.5781,-15.2344Q75,-10.5469 77.3438,-8.20312L75.1953,-4.6875L78.125,-4.6875Q78.5156,-4.6875 78.5156,-28.125L67.9688,-28.125L67.1875,-26.5625Q72.2656,-23.8281 78.125,-19.1406L76.1719,-15.2344Q71.875,-19.1406 65.625,-22.6562Q63.2812,-18.3594 55.8594,-15.625Q55.4688,-17.5781 54.2969,-19.5312Q61.3281,-21.875 63.2812,-28.125L53.9062,-28.125L53.9062,0.390625ZM90.2344,2.34375L90.2344,-78.5156L9.76562,-78.5156L9.76562,2.34375L90.2344,2.34375ZM94.9219,7.03125L5.07812,7.03125L5.07812,-82.8125L94.9219,-82.8125L94.9219,7.03125ZM42.1875,-0Q41.0156,-1.95312 37.5977,-4.29688Q38.9648,-6.34766 40.4785,-15.5762Q41.9922,-24.8047 41.7969,-70.3125L61.7188,-70.3125Q61.1328,-72.4609 59.8633,-75.6836L64.8438,-77.3438Q66.5039,-72.6562 67.5781,-70.3125L86.7188,-70.3125L86.7188,-64.8438L47.3633,-64.8438Q47.0703,-39.4531 46.6309,-27.6367Q46.1914,-15.8203 44.9707,-9.86328Q43.75,-3.90625 42.1875,-0ZM37.8906,-9.17969L14.0625,-3.125L13.2812,-9.375Q19.9219,-10.5469 26.9531,-12.5Q29.6875,-24.2188 30.4688,-31.6406L35.5469,-30.0781Q34.7656,-26.1719 33.9844,-21.6797Q33.2031,-17.1875 32.0312,-13.6719L37.5977,-15.332L37.8906,-9.17969Z"></path><path transform="translate(650 200)" d="M32.0312,-38.6719L32.0312,-51.5625L20.7031,-51.5625L20.7031,-38.6719L32.0312,-38.6719ZM57.4219,-35.9375L52.7344,-35.9375L52.7344,-47.2656L49.6094,-44.1406Q48.4375,-47.6562 47.2656,-49.2188Q53.5156,-54.6875 57.0312,-63.6719L61.3281,-61.7188Q59.7656,-57.8125 57.4219,-54.2969L57.4219,-35.9375ZM19.5312,-13.2812Q19.5312,-17.9688 17.1875,-29.6875L21.4844,-31.6406Q23.4375,-23.0469 24.6094,-14.8438L19.5312,-13.2812ZM37.5,-33.9844L16.0156,-33.9844L16.0156,-57.0312L37.5,-57.0312L37.5,-33.9844ZM38.6719,-64.4531L14.4531,-64.4531L14.4531,-70.3125L38.6719,-70.3125L38.6719,-64.4531ZM75.3906,-36.3281L70.3125,-36.3281Q70.3125,-38.6719 69.5312,-40.625L74.6094,-40.625Q75,-40.625 75,-52.3438L59.7656,-52.3438L59.7656,-57.0312L75,-57.0312L75,-62.8906L80.0781,-62.8906L80.0781,-57.0312L86.3281,-57.0312L86.3281,-52.3438L80.0781,-52.3438L79.6875,-38.6719Q78.5156,-36.3281 75.3906,-36.3281ZM68.75,-39.8438Q66.4062,-42.9688 60.9375,-47.6562L63.2812,-51.1719Q69.5312,-46.875 71.0938,-44.1406L68.75,-39.8438ZM53.9062,0.390625L49.2188,0.390625L49.2188,-32.8125L64.4531,-32.8125L64.8438,-37.8906L69.5312,-37.8906L68.75,-32.8125L83.5938,-32.8125L83.5938,-6.25Q83.5938,-1.95312 81.4453,-0.976562Q79.2969,-0 72.6562,-0Q72.6562,-2.34375 71.875,-4.6875L74.6094,-4.6875Q71.4844,-7.61719 66.0156,-11.3281Q62.8906,-7.03125 55.8594,-3.90625Q55.0781,-7.42188 54.2969,-7.8125Q62.8906,-11.3281 64.4531,-19.5312L68.75,-19.5312Q68.75,-17.5781 67.5781,-15.2344Q75,-10.5469 77.3438,-8.20312L75.1953,-4.6875L78.125,-4.6875Q78.5156,-4.6875 78.5156,-28.125L67.9688,-28.125L67.1875,-26.5625Q72.2656,-23.8281 78.125,-19.1406L76.1719,-15.2344Q71.875,-19.1406 65.625,-22.6562Q63.2812,-18.3594 55.8594,-15.625Q55.4688,-17.5781 54.2969,-19.5312Q61.3281,-21.875 63.2812,-28.125L53.9062,-28.125L53.9062,0.390625ZM90.2344,2.34375L90.2344,-78.5156L9.76562,-78.5156L9.76562,2.34375L90.2344,2.34375ZM94.9219,7.03125L5.07812,7.03125L5.07812,-82.8125L94.9219,-82.8125L94.9219,7.03125ZM42.1875,-0Q41.0156,-1.95312 37.5977,-4.29688Q38.9648,-6.34766 40.4785,-15.5762Q41.9922,-24.8047 41.7969,-70.3125L61.7188,-70.3125Q61.1328,-72.4609 59.8633,-75.6836L64.8438,-77.3438Q66.5039,-72.6562 67.5781,-70.3125L86.7188,-70.3125L86.7188,-64.8438L47.3633,-64.8438Q47.0703,-39.4531 46.6309,-27.6367Q46.1914,-15.8203 44.9707,-9.86328Q43.75,-3.90625 42.1875,-0ZM37.8906,-9.17969L14.0625,-3.125L13.2812,-9.375Q19.9219,-10.5469 26.9531,-12.5Q29.6875,-24.2188 30.4688,-31.6406L35.5469,-30.0781Q34.7656,-26.1719 33.9844,-21.6797Q33.2031,-17.1875 32.0312,-13.6719L37.5977,-15.332L37.8906,-9.17969Z"></path><path transform="translate(750 200)" d="M32.0312,-38.6719L32.0312,-51.5625L20.7031,-51.5625L20.7031,-38.6719L32.0312,-38.6719ZM57.4219,-35.9375L52.7344,-35.9375L52.7344,-47.2656L49.6094,-44.1406Q48.4375,-47.6562 47.2656,-49.2188Q53.5156,-54.6875 57.0312,-63.6719L61.3281,-61.7188Q59.7656,-57.8125 57.4219,-54.2969L57.4219,-35.9375ZM19.5312,-13.2812Q19.5312,-17.9688 17.1875,-29.6875L21.4844,-31.6406Q23.4375,-23.0469 24.6094,-14.8438L19.5312,-13.2812ZM37.5,-33.9844L16.0156,-33.9844L16.0156,-57.0312L37.5,-57.0312L37.5,-33.9844ZM38.6719,-64.4531L14.4531,-64.4531L14.4531,-70.3125L38.6719,-70.3125L38.6719,-64.4531ZM75.3906,-36.3281L70.3125,-36.3281Q70.3125,-38.6719 69.5312,-40.625L74.6094,-40.625Q75,-40.625 75,-52.3438L59.7656,-52.3438L59.7656,-57.0312L75,-57.0312L75,-62.8906L80.0781,-62.8906L80.0781,-57.0312L86.3281,-57.0312L86.3281,-52.3438L80.0781,-52.3438L79.6875,-38.6719Q78.5156,-36.3281 75.3906,-36.3281ZM68.75,-39.8438Q66.4062,-42.9688 60.9375,-47.6562L63.2812,-51.1719Q69.5312,-46.875 71.0938,-44.1406L68.75,-39.8438ZM53.9062,0.390625L49.2188,0.390625L49.2188,-32.8125L64.4531,-32.8125L64.8438,-37.8906L69.5312,-37.8906L68.75,-32.8125L83.5938,-32.8125L83.5938,-6.25Q83.5938,-1.95312 81.4453,-0.976562Q79.2969,-0 72.6562,-0Q72.6562,-2.34375 71.875,-4.6875L74.6094,-4.6875Q71.4844,-7.61719 66.0156,-11.3281Q62.8906,-7.03125 55.8594,-3.90625Q55.0781,-7.42188 54.2969,-7.8125Q62.8906,-11.3281 64.4531,-19.5312L68.75,-19.5312Q68.75,-17.5781 67.5781,-15.2344Q75,-10.5469 77.3438,-8.20312L75.1953,-4.6875L78.125,-4.6875Q78.5156,-4.6875 78.5156,-28.125L67.9688,-28.125L67.1875,-26.5625Q72.2656,-23.8281 78.125,-19.1406L76.1719,-15.2344Q71.875,-19.1406 65.625,-22.6562Q63.2812,-18.3594 55.8594,-15.625Q55.4688,-17.5781 54.2969,-19.5312Q61.3281,-21.875 63.2812,-28.125L53.9062,-28.125L53.9062,0.390625ZM90.2344,2.34375L90.2344,-78.5156L9.76562,-78.5156L9.76562,2.34375L90.2344,2.34375ZM94.9219,7.03125L5.07812,7.03125L5.07812,-82.8125L94.9219,-82.8125L94.9219,7.03125ZM42.1875,-0Q41.0156,-1.95312 37.5977,-4.29688Q38.9648,-6.34766 40.4785,-15.5762Q41.9922,-24.8047 41.7969,-70.3125L61.7188,-70.3125Q61.1328,-72.4609 59.8633,-75.6836L64.8438,-77.3438Q66.5039,-72.6562 67.5781,-70.3125L86.7188,-70.3125L86.7188,-64.8438L47.3633,-64.8438Q47.0703,-39.4531 46.6309,-27.6367Q46.1914,-15.8203 44.9707,-9.86328Q43.75,-3.90625 42.1875,-0ZM37.8906,-9.17969L14.0625,-3.125L13.2812,-9.375Q19.9219,-10.5469 26.9531,-12.5Q29.6875,-24.2188 30.4688,-31.6406L35.5469,-30.0781Q34.7656,-26.1719 33.9844,-21.6797Q33.2031,-17.1875 32.0312,-13.6719L37.5977,-15.332L37.8906,-9.17969Z"></path><path transform="translate(850 200)" d="M32.0312,-38.6719L32.0312,-51.5625L20.7031,-51.5625L20.7031,-38.6719L32.0312,-38.6719ZM57.4219,-35.9375L52.7344,-35.9375L52.7344,-47.2656L49.6094,-44.1406Q48.4375,-47.6562 47.2656,-49.2188Q53.5156,-54.6875 57.0312,-63.6719L61.3281,-61.7188Q59.7656,-57.8125 57.4219,-54.2969L57.4219,-35.9375ZM19.5312,-13.2812Q19.5312,-17.9688 17.1875,-29.6875L21.4844,-31.6406Q23.4375,-23.0469 24.6094,-14.8438L19.5312,-13.2812ZM37.5,-33.9844L16.0156,-33.9844L16.0156,-57.0312L37.5,-57.0312L37.5,-33.9844ZM38.6719,-64.4531L14.4531,-64.4531L14.4531,-70.3125L38.6719,-70.3125L38.6719,-64.4531ZM75.3906,-36.3281L70.3125,-36.3281Q70.3125,-38.6719 69.5312,-40.625L74.6094,-40.625Q75,-40.625 75,-52.3438L59.7656,-52.3438L59.7656,-57.0312L75,-57.0312L75,-62.8906L80.0781,-62.8906L80.0781,-57.0312L86.3281,-57.0312L86.3281,-52.3438L80.0781,-52.3438L79.6875,-38.6719Q78.5156,-36.3281 75.3906,-36.3281ZM68.75,-39.8438Q66.4062,-42.9688 60.9375,-47.6562L63.2812,-51.1719Q69.5312,-46.875 71.0938,-44.1406L68.75,-39.8438ZM53.9062,0.390625L49.2188,0.390625L49.2188,-32.8125L64.4531,-32.8125L64.8438,-37.8906L69.5312,-37.8906L68.75,-32.8125L83.5938,-32.8125L83.5938,-6.25Q83.5938,-1.95312 81.4453,-0.976562Q79.2969,-0 72.6562,-0Q72.6562,-2.34375 71.875,-4.6875L74.6094,-4.6875Q71.4844,-7.61719 66.0156,-11.3281Q62.8906,-7.03125 55.8594,-3.90625Q55.0781,-7.42188 54.2969,-7.8125Q62.8906,-11.3281 64.4531,-19.5312L68.75,-19.5312Q68.75,-17.5781 67.5781,-15.2344Q75,-10.5469 77.3438,-8.20312L75.1953,-4.6875L78.125,-4.6875Q78.5156,-4.6875 78.5156,-28.125L67.9688,-28.125L67.1875,-26.5625Q72.2656,-23.8281 78.125,-19.1406L76.1719,-15.2344Q71.875,-19.1406 65.625,-22.6562Q63.2812,-18.3594 55.8594,-15.625Q55.4688,-17.5781 54.2969,-19.5312Q61.3281,-21.875 63.2812,-28.125L53.9062,-28.125L53.9062,0.390625ZM90.2344,2.34375L90.2344,-78.5156L9.76562,-78.5156L9.76562,2.34375L90.2344,2.34375ZM94.9219,7.03125L5.07812,7.03125L5.07812,-82.8125L94.9219,-82.8125L94.9219,7.03125ZM42.1875,-0Q41.0156,-1.95312 37.5977,-4.29688Q38.9648,-6.34766 40.4785,-15.5762Q41.9922,-24.8047 41.7969,-70.3125L61.7188,-70.3125Q61.1328,-72.4609 59.8633,-75.6836L64.8438,-77.3438Q66.5039,-72.6562 67.5781,-70.3125L86.7188,-70.3125L86.7188,-64.8438L47.3633,-64.8438Q47.0703,-39.4531 46.6309,-27.6367Q46.1914,-15.8203 44.9707,-9.86328Q43.75,-3.90625 42.1875,-0ZM37.8906,-9.17969L14.0625,-3.125L13.2812,-9.375Q19.9219,-10.5469 26.9531,-12.5Q29.6875,-24.2188 30.4688,-31.6406L35.5469,-30.0781Q34.7656,-26.1719 33.9844,-21.6797Q33.2031,-17.1875 32.0312,-13.6719L37.5977,-15.332L37.8906,-9.17969Z"></path><path transform="translate(950 200)" d="M32.0312,-38.6719L32.0312,-51.5625L20.7031,-51.5625L20.7031,-38.6719L32.0312,-38.6719ZM57.4219,-35.9375L52.7344,-35.9375L52.7344,-47.2656L49.6094,-44.1406Q48.4375,-47.6562 47.2656,-49.2188Q53.5156,-54.6875 57.0312,-63.6719L61.3281,-61.7188Q59.7656,-57.8125 57.4219,-54.2969L57.4219,-35.9375ZM19.5312,-13.2812Q19.5312,-17.9688 17.1875,-29.6875L21.4844,-31.6406Q23.4375,-23.0469 24.6094,-14.8438L19.5312,-13.2812ZM37.5,-33.9844L16.0156,-33.9844L16.0156,-57.0312L37.5,-57.0312L37.5,-33.9844ZM38.6719,-64.4531L14.4531,-64.4531L14.4531,-70.3125L38.6719,-70.3125L38.6719,-64.4531ZM75.3906,-36.3281L70.3125,-36.3281Q70.3125,-38.6719 69.5312,-40.625L74.6094,-40.625Q75,-40.625 75,-52.3438L59.7656,-52.3438L59.7656,-57.0312L75,-57.0312L75,-62.8906L80.0781,-62.8906L80.0781,-57.0312L86.3281,-57.0312L86.3281,-52.3438L80.0781,-52.3438L79.6875,-38.6719Q78.5156,-36.3281 75.3906,-36.3281ZM68.75,-39.8438Q66.4062,-42.9688 60.9375,-47.6562L63.2812,-51.1719Q69.5312,-46.875 71.0938,-44.1406L68.75,-39.8438ZM53.9062,0.390625L49.2188,0.390625L49.2188,-32.8125L64.4531,-32.8125L64.8438,-37.8906L69.5312,-37.8906L68.75,-32.8125L83.5938,-32.8125L83.5938,-6.25Q83.5938,-1.95312 81.4453,-0.976562Q79.2969,-0 72.6562,-0Q72.6562,-2.34375 71.875,-4.6875L74.6094,-4.6875Q71.4844,-7.61719 66.0156,-11.3281Q62.8906,-7.03125 55.8594,-3.90625Q55.0781,-7.42188 54.2969,-7.8125Q62.8906,-11.3281 64.4531,-19.5312L68.75,-19.5312Q68.75,-17.5781 67.5781,-15.2344Q75,-10.5469 77.3438,-8.20312L75.1953,-4.6875L78.125,-4.6875Q78.5156,-4.6875 78.5156,-28.125L67.9688,-28.125L67.1875,-26.5625Q72.2656,-23.8281 78.125,-19.1406L76.1719,-15.2344Q71.875,-19.1406 65.625,-22.6562Q63.2812,-18.3594 55.8594,-15.625Q55.4688,-17.5781 54.2969,-19.5312Q61.3281,-21.875 63.2812,-28.125L53.9062,-28.125L53.9062,0.390625ZM90.2344,2.34375L90.2344,-78.5156L9.76562,-78.5156L9.76562,2.34375L90.2344,2.34375ZM94.9219,7.03125L5.07812,7.03125L5.07812,-82.8125L94.9219,-82.8125L94.9219,7.03125ZM42.1875,-0Q41.0156,-1.95312 37.5977,-4.29688Q38.9648,-6.34766 40.4785,-15.5762Q41.9922,-24.8047 41.7969,-70.3125L61.7188,-70.3125Q61.1328,-72.4609 59.8633,-75.6836L64.8438,-77.3438Q66.5039,-72.6562 67.5781,-70.3125L86.7188,-70.3125L86.7188,-64.8438L47.3633,-64.8438Q47.0703,-39.4531 46.6309,-27.6367Q46.1914,-15.8203 44.9707,-9.86328Q43.75,-3.90625 42.1875,-0ZM37.8906,-9.17969L14.0625,-3.125L13.2812,-9.375Q19.9219,-10.5469 26.9531,-12.5Q29.6875,-24.2188 30.4688,-31.6406L35.5469,-30.0781Q34.7656,-26.1719 33.9844,-21.6797Q33.2031,-17.1875 32.0312,-13.6719L37.5977,-15.332L37.8906,-9.17969Z"></path><path transform="translate(1050 200)" d=""></path><path transform="translate(1100 200)" d="M32.0312,-38.6719L32.0312,-51.5625L20.7031,-51.5625L20.7031,-38.6719L32.0312,-38.6719ZM57.4219,-35.9375L52.7344,-35.9375L52.7344,-47.2656L49.6094,-44.1406Q48.4375,-47.6562 47.2656,-49.2188Q53.5156,-54.6875 57.0312,-63.6719L61.3281,-61.7188Q59.7656,-57.8125 57.4219,-54.2969L57.4219,-35.9375ZM19.5312,-13.2812Q19.5312,-17.9688 17.1875,-29.6875L21.4844,-31.6406Q23.4375,-23.0469 24.6094,-14.8438L19.5312,-13.2812ZM37.5,-33.9844L16.0156,-33.9844L16.0156,-57.0312L37.5,-57.0312L37.5,-33.9844ZM38.6719,-64.4531L14.4531,-64.4531L14.4531,-70.3125L38.6719,-70.3125L38.6719,-64.4531ZM75.3906,-36.3281L70.3125,-36.3281Q70.3125,-38.6719 69.5312,-40.625L74.6094,-40.625Q75,-40.625 75,-52.3438L59.7656,-52.3438L59.7656,-57.0312L75,-57.0312L75,-62.8906L80.0781,-62.8906L80.0781,-57.0312L86.3281,-57.0312L86.3281,-52.3438L80.0781,-52.3438L79.6875,-38.6719Q78.5156,-36.3281 75.3906,-36.3281ZM68.75,-39.8438Q66.4062,-42.9688 60.9375,-47.6562L63.2812,-51.1719Q69.5312,-46.875 71.0938,-44.1406L68.75,-39.8438ZM53.9062,0.390625L49.2188,0.390625L49.2188,-32.8125L64.4531,-32.8125L64.8438,-37.8906L69.5312,-37.8906L68.75,-32.8125L83.5938,-32.8125L83.5938,-6.25Q83.5938,-1.95312 81.4453,-0.976562Q79.2969,-0 72.6562,-0Q72.6562,-2.34375 71.875,-4.6875L74.6094,-4.6875Q71.4844,-7.61719 66.0156,-11.3281Q62.8906,-7.03125 55.8594,-3.90625Q55.0781,-7.42188 54.2969,-7.8125Q62.8906,-11.3281 64.4531,-19.5312L68.75,-19.5312Q68.75,-17.5781 67.5781,-15.2344Q75,-10.5469 77.3438,-8.20312L75.1953,-4.6875L78.125,-4.6875Q78.5156,-4.6875 78.5156,-28.125L67.9688,-28.125L67.1875,-26.5625Q72.2656,-23.8281 78.125,-19.1406L76.1719,-15.2344Q71.875,-19.1406 65.625,-22.6562Q63.2812,-18.3594 55.8594,-15.625Q55.4688,-17.5781 54.2969,-19.5312Q61.3281,-21.875 63.2812,-28.125L53.9062,-28.125L53.9062,0.390625ZM90.2344,2.34375L90.2344,-78.5156L9.76562,-78.5156L9.76562,2.34375L90.2344,2.34375ZM94.9219,7.03125L5.07812,7.03125L5.07812,-82.8125L94.9219,-82.8125L94.9219,7.03125ZM42.1875,-0Q41.0156,-1.95312 37.5977,-4.29688Q38.9648,-6.34766 40.4785,-15.5762Q41.9922,-24.8047 41.7969,-70.3125L61.7188,-70.3125Q61.1328,-72.4609 59.8633,-75.6836L64.8438,-77.3438Q66.5039,-72.6562 67.5781,-70.3125L86.7188,-70.3125L86.7188,-64.8438L47.3633,-64.8438Q47.0703,-39.4531 46.6309,-27.6367Q46.1914,-15.8203 44.9707,-9.86328Q43.75,-3.90625 42.1875,-0ZM37.8906,-9.17969L14.0625,-3.125L13.2812,-9.375Q19.9219,-10.5469 26.9531,-12.5Q29.6875,-24.2188 30.4688,-31.6406L35.5469,-30.0781Q34.7656,-26.1719 33.9844,-21.6797Q33.2031,-17.1875 32.0312,-13.6719L37.5977,-15.332L37.8906,-9.17969Z"></path><path transform="translate(1200 200)" d="M32.0312,-38.6719L32.0312,-51.5625L20.7031,-51.5625L20.7031,-38.6719L32.0312,-38.6719ZM57.4219,-35.9375L52.7344,-35.9375L52.7344,-47.2656L49.6094,-44.1406Q48.4375,-47.6562 47.2656,-49.2188Q53.5156,-54.6875 57.0312,-63.6719L61.3281,-61.7188Q59.7656,-57.8125 57.4219,-54.2969L57.4219,-35.9375ZM19.5312,-13.2812Q19.5312,-17.9688 17.1875,-29.6875L21.4844,-31.6406Q23.4375,-23.0469 24.6094,-14.8438L19.5312,-13.2812ZM37.5,-33.9844L16.0156,-33.9844L16.0156,-57.0312L37.5,-57.0312L37.5,-33.9844ZM38.6719,-64.4531L14.4531,-64.4531L14.4531,-70.3125L38.6719,-70.3125L38.6719,-64.4531ZM75.3906,-36.3281L70.3125,-36.3281Q70.3125,-38.6719 69.5312,-40.625L74.6094,-40.625Q75,-40.625 75,-52.3438L59.7656,-52.3438L59.7656,-57.0312L75,-57.0312L75,-62.8906L80.0781,-62.8906L80.0781,-57.0312L86.3281,-57.0312L86.3281,-52.3438L80.0781,-52.3438L79.6875,-38.6719Q78.5156,-36.3281 75.3906,-36.3281ZM68.75,-39.8438Q66.4062,-42.9688 60.9375,-47.6562L63.2812,-51.1719Q69.5312,-46.875 71.0938,-44.1406L68.75,-39.8438ZM53.9062,0.390625L49.2188,0.390625L49.2188,-32.8125L64.4531,-32.8125L64.8438,-37.8906L69.5312,-37.8906L68.75,-32.8125L83.5938,-32.8125L83.5938,-6.25Q83.5938,-1.95312 81.4453,-0.976562Q79.2969,-0 72.6562,-0Q72.6562,-2.34375 71.875,-4.6875L74.6094,-4.6875Q71.4844,-7.61719 66.0156,-11.3281Q62.8906,-7.03125 55.8594,-3.90625Q55.0781,-7.42188 54.2969,-7.8125Q62.8906,-11.3281 64.4531,-19.5312L68.75,-19.5312Q68.75,-17.5781 67.5781,-15.2344Q75,-10.5469 77.3438,-8.20312L75.1953,-4.6875L78.125,-4.6875Q78.5156,-4.6875 78.5156,-28.125L67.9688,-28.125L67.1875,-26.5625Q72.2656,-23.8281 78.125,-19.1406L76.1719,-15.2344Q71.875,-19.1406 65.625,-22.6562Q63.2812,-18.3594 55.8594,-15.625Q55.4688,-17.5781 54.2969,-19.5312Q61.3281,-21.875 63.2812,-28.125L53.9062,-28.125L53.9062,0.390625ZM90.2344,2.34375L90.2344,-78.5156L9.76562,-78.5156L9.76562,2.34375L90.2344,2.34375ZM94.9219,7.03125L5.07812,7.03125L5.07812,-82.8125L94.9219,-82.8125L94.9219,7.03125ZM42.1875,-0Q41.0156,-1.95312 37.5977,-4.29688Q38.9648,-6.34766 40.4785,-15.5762Q41.9922,-24.8047 41.7969,-70.3125L61.7188,-70.3125Q61.1328,-72.4609 59.8633,-75.6836L64.8438,-77.3438Q66.5039,-72.6562 67.5781,-70.3125L86.7188,-70.3125L86.7188,-64.8438L47.3633,-64.8438Q47.0703,-39.4531 46.6309,-27.6367Q46.1914,-15.8203 44.9707,-9.86328Q43.75,-3.90625 42.1875,-0ZM37.8906,-9.17969L14.0625,-3.125L13.2812,-9.375Q19.9219,-10.5469 26.9531,-12.5Q29.6875,-24.2188 30.4688,-31.6406L35.5469,-30.0781Q34.7656,-26.1719 33.9844,-21.6797Q33.2031,-17.1875 32.0312,-13.6719L37.5977,-15.332L37.8906,-9.17969Z"></path><path transform="translate(1300 200)" d="M32.0312,-38.6719L32.0312,-51.5625L20.7031,-51.5625L20.7031,-38.6719L32.0312,-38.6719ZM57.4219,-35.9375L52.7344,-35.9375L52.7344,-47.2656L49.6094,-44.1406Q48.4375,-47.6562 47.2656,-49.2188Q53.5156,-54.6875 57.0312,-63.6719L61.3281,-61.7188Q59.7656,-57.8125 57.4219,-54.2969L57.4219,-35.9375ZM19.5312,-13.2812Q19.5312,-17.9688 17.1875,-29.6875L21.4844,-31.6406Q23.4375,-23.0469 24.6094,-14.8438L19.5312,-13.2812ZM37.5,-33.9844L16.0156,-33.9844L16.0156,-57.0312L37.5,-57.0312L37.5,-33.9844ZM38.6719,-64.4531L14.4531,-64.4531L14.4531,-70.3125L38.6719,-70.3125L38.6719,-64.4531ZM75.3906,-36.3281L70.3125,-36.3281Q70.3125,-38.6719 69.5312,-40.625L74.6094,-40.625Q75,-40.625 75,-52.3438L59.7656,-52.3438L59.7656,-57.0312L75,-57.0312L75,-62.8906L80.0781,-62.8906L80.0781,-57.0312L86.3281,-57.0312L86.3281,-52.3438L80.0781,-52.3438L79.6875,-38.6719Q78.5156,-36.3281 75.3906,-36.3281ZM68.75,-39.8438Q66.4062,-42.9688 60.9375,-47.6562L63.2812,-51.1719Q69.5312,-46.875 71.0938,-44.1406L68.75,-39.8438ZM53.9062,0.390625L49.2188,0.390625L49.2188,-32.8125L64.4531,-32.8125L64.8438,-37.8906L69.5312,-37.8906L68.75,-32.8125L83.5938,-32.8125L83.5938,-6.25Q83.5938,-1.95312 81.4453,-0.976562Q79.2969,-0 72.6562,-0Q72.6562,-2.34375 71.875,-4.6875L74.6094,-4.6875Q71.4844,-7.61719 66.0156,-11.3281Q62.8906,-7.03125 55.8594,-3.90625Q55.0781,-7.42188 54.2969,-7.8125Q62.8906,-11.3281 64.4531,-19.5312L68.75,-19.5312Q68.75,-17.5781 67.5781,-15.2344Q75,-10.5469 77.3438,-8.20312L75.1953,-4.6875L78.125,-4.6875Q78.5156,-4.6875 78.5156,-28.125L67.9688,-28.125L67.1875,-26.5625Q72.2656,-23.8281 78.125,-19.1406L76.1719,-15.2344Q71.875,-19.1406 65.625,-22.6562Q63.2812,-18.3594 55.8594,-15.625Q55.4688,-17.5781 54.2969,-19.5312Q61.3281,-21.875 63.2812,-28.125L53.9062,-28.125L53.9062,0.390625ZM90.2344,2.34375L90.2344,-78.5156L9.76562,-78.5156L9.76562,2.34375L90.2344,2.34375ZM94.9219,7.03125L5.07812,7.03125L5.07812,-82.8125L94.9219,-82.8125L94.9219,7.03125ZM42.1875,-0Q41.0156,-1.95312 37.5977,-4.29688Q38.9648,-6.34766 40.4785,-15.5762Q41.9922,-24.8047 41.7969,-70.3125L61.7188,-70.3125Q61.1328,-72.4609 59.8633,-75.6836L64.8438,-77.3438Q66.5039,-72.6562 67.5781,-70.3125L86.7188,-70.3125L86.7188,-64.8438L47.3633,-64.8438Q47.0703,-39.4531 46.6309,-27.6367Q46.1914,-15.8203 44.9707,-9.86328Q43.75,-3.90625 42.1875,-0ZM37.8906,-9.17969L14.0625,-3.125L13.2812,-9.375Q19.9219,-10.5469 26.9531,-12.5Q29.6875,-24.2188 30.4688,-31.6406L35.5469,-30.0781Q34.7656,-26.1719 33.9844,-21.6797Q33.2031,-17.1875 32.0312,-13.6719L37.5977,-15.332L37.8906,-9.17969Z"></path><path transform="translate(1400 200)" d=""></path><path transform="translate(1450 200)" d="M32.0312,-38.6719L32.0312,-51.5625L20.7031,-51.5625L20.7031,-38.6719L32.0312,-38.6719ZM57.4219,-35.9375L52.7344,-35.9375L52.7344,-47.2656L49.6094,-44.1406Q48.4375,-47.6562 47.2656,-49.2188Q53.5156,-54.6875 57.0312,-63.6719L61.3281,-61.7188Q59.7656,-57.8125 57.4219,-54.2969L57.4219,-35.9375ZM19.5312,-13.2812Q19.5312,-17.9688 17.1875,-29.6875L21.4844,-31.6406Q23.4375,-23.0469 24.6094,-14.8438L19.5312,-13.2812ZM37.5,-33.9844L16.0156,-33.9844L16.0156,-57.0312L37.5,-57.0312L37.5,-33.9844ZM38.6719,-64.4531L14.4531,-64.4531L14.4531,-70.3125L38.6719,-70.3125L38.6719,-64.4531ZM75.3906,-36.3281L70.3125,-36.3281Q70.3125,-38.6719 69.5312,-40.625L74.6094,-40.625Q75,-40.625 75,-52.3438L59.7656,-52.3438L59.7656,-57.0312L75,-57.0312L75,-62.8906L80.0781,-62.8906L80.0781,-57.0312L86.3281,-57.0312L86.3281,-52.3438L80.0781,-52.3438L79.6875,-38.6719Q78.5156,-36.3281 75.3906,-36.3281ZM68.75,-39.8438Q66.4062,-42.9688 60.9375,-47.6562L63.2812,-51.1719Q69.5312,-46.875 71.0938,-44.1406L68.75,-39.8438ZM53.9062,0.390625L49.2188,0.390625L49.2188,-32.8125L64.4531,-32.8125L64.8438,-37.8906L69.5312,-37.8906L68.75,-32.8125L83.5938,-32.8125L83.5938,-6.25Q83.5938,-1.95312 81.4453,-0.976562Q79.2969,-0 72.6562,-0Q72.6562,-2.34375 71.875,-4.6875L74.6094,-4.6875Q71.4844,-7.61719 66.0156,-11.3281Q62.8906,-7.03125 55.8594,-3.90625Q55.0781,-7.42188 54.2969,-7.8125Q62.8906,-11.3281 64.4531,-19.5312L68.75,-19.5312Q68.75,-17.5781 67.5781,-15.2344Q75,-10.5469 77.3438,-8.20312L75.1953,-4.6875L78.125,-4.6875Q78.5156,-4.6875 78.5156,-28.125L67.9688,-28.125L67.1875,-26.5625Q72.2656,-23.8281 78.125,-19.1406L76.1719,-15.2344Q71.875,-19.1406 65.625,-22.6562Q63.2812,-18.3594 55.8594,-15.625Q55.4688,-17.5781 54.2969,-19.5312Q61.3281,-21.875 63.2812,-28.125L53.9062,-28.125L53.9062,0.390625ZM90.2344,2.34375L90.2344,-78.5156L9.76562,-78.5156L9.76562,2.34375L90.2344,2.34375ZM94.9219,7.03125L5.07812,7.03125L5.07812,-82.8125L94.9219,-82.8125L94.9219,7.03125ZM42.1875,-0Q41.0156,-1.95312 37.5977,-4.29688Q38.9648,-6.34766 40.4785,-15.5762Q41.9922,-24.8047 41.7969,-70.3125L61.7188,-70.3125Q61.1328,-72.4609 59.8633,-75.6836L64.8438,-77.3438Q66.5039,-72.6562 67.5781,-70.3125L86.7188,-70.3125L86.7188,-64.8438L47.3633,-64.8438Q47.0703,-39.4531 46.6309,-27.6367Q46.1914,-15.8203 44.9707,-9.86328Q43.75,-3.90625 42.1875,-0ZM37.8906,-9.17969L14.0625,-3.125L13.2812,-9.375Q19.9219,-10.5469 26.9531,-12.5Q29.6875,-24.2188 30.4688,-31.6406L35.5469,-30.0781Q34.7656,-26.1719 33.9844,-21.6797Q33.2031,-17.1875 32.0312,-13.6719L37.5977,-15.332L37.8906,-9.17969Z"></path><path transform="translate(1550 200)" d="M32.0312,-38.6719L32.0312,-51.5625L20.7031,-51.5625L20.7031,-38.6719L32.0312,-38.6719ZM57.4219,-35.9375L52.7344,-35.9375L52.7344,-47.2656L49.6094,-44.1406Q48.4375,-47.6562 47.2656,-49.2188Q53.5156,-54.6875 57.0312,-63.6719L61.3281,-61.7188Q59.7656,-57.8125 57.4219,-54.2969L57.4219,-35.9375ZM19.5312,-13.2812Q19.5312,-17.9688 17.1875,-29.6875L21.4844,-31.6406Q23.4375,-23.0469 24.6094,-14.8438L19.5312,-13.2812ZM37.5,-33.9844L16.0156,-33.9844L16.0156,-57.0312L37.5,-57.0312L37.5,-33.9844ZM38.6719,-64.4531L14.4531,-64.4531L14.4531,-70.3125L38.6719,-70.3125L38.6719,-64.4531ZM75.3906,-36.3281L70.3125,-36.3281Q70.3125,-38.6719 69.5312,-40.625L74.6094,-40.625Q75,-40.625 75,-52.3438L59.7656,-52.3438L59.7656,-57.0312L75,-57.0312L75,-62.8906L80.0781,-62.8906L80.0781,-57.0312L86.3281,-57.0312L86.3281,-52.3438L80.0781,-52.3438L79.6875,-38.6719Q78.5156,-36.3281 75.3906,-36.3281ZM68.75,-39.8438Q66.4062,-42.9688 60.9375,-47.6562L63.2812,-51.1719Q69.5312,-46.875 71.0938,-44.1406L68.75,-39.8438ZM53.9062,0.390625L49.2188,0.390625L49.2188,-32.8125L64.4531,-32.8125L64.8438,-37.8906L69.5312,-37.8906L68.75,-32.8125L83.5938,-32.8125L83.5938,-6.25Q83.5938,-1.95312 81.4453,-0.976562Q79.2969,-0 72.6562,-0Q72.6562,-2.34375 71.875,-4.6875L74.6094,-4.6875Q71.4844,-7.61719 66.0156,-11.3281Q62.8906,-7.03125 55.8594,-3.90625Q55.0781,-7.42188 54.2969,-7.8125Q62.8906,-11.3281 64.4531,-19.5312L68.75,-19.5312Q68.75,-17.5781 67.5781,-15.2344Q75,-10.5469 77.3438,-8.20312L75.1953,-4.6875L78.125,-4.6875Q78.5156,-4.6875 78.5156,-28.125L67.9688,-28.125L67.1875,-26.5625Q72.2656,-23.8281 78.125,-19.1406L76.1719,-15.2344Q71.875,-19.1406 65.625,-22.6562Q63.2812,-18.3594 55.8594,-15.625Q55.4688,-17.5781 54.2969,-19.5312Q61.3281,-21.875 63.2812,-28.125L53.9062,-28.125L53.9062,0.390625ZM90.2344,2.34375L90.2344,-78.5156L9.76562,-78.5156L9.76562,2.34375L90.2344,2.34375ZM94.9219,7.03125L5.07812,7.03125L5.07812,-82.8125L94.9219,-82.8125L94.9219,7.03125ZM42.1875,-0Q41.0156,-1.95312 37.5977,-4.29688Q38.9648,-6.34766 40.4785,-15.5762Q41.9922,-24.8047 41.7969,-70.3125L61.7188,-70.3125Q61.1328,-72.4609 59.8633,-75.6836L64.8438,-77.3438Q66.5039,-72.6562 67.5781,-70.3125L86.7188,-70.3125L86.7188,-64.8438L47.3633,-64.8438Q47.0703,-39.4531 46.6309,-27.6367Q46.1914,-15.8203 44.9707,-9.86328Q43.75,-3.90625 42.1875,-0ZM37.8906,-9.17969L14.0625,-3.125L13.2812,-9.375Q19.9219,-10.5469 26.9531,-12.5Q29.6875,-24.2188 30.4688,-31.6406L35.5469,-30.0781Q34.7656,-26.1719 33.9844,-21.6797Q33.2031,-17.1875 32.0312,-13.6719L37.5977,-15.332L37.8906,-9.17969Z"></path><path transform="translate(1650 200)" d="M32.0312,-38.6719L32.0312,-51.5625L20.7031,-51.5625L20.7031,-38.6719L32.0312,-38.6719ZM57.4219,-35.9375L52.7344,-35.9375L52.7344,-47.2656L49.6094,-44.1406Q48.4375,-47.6562 47.2656,-49.2188Q53.5156,-54.6875 57.0312,-63.6719L61.3281,-61.7188Q59.7656,-57.8125 57.4219,-54.2969L57.4219,-35.9375ZM19.5312,-13.2812Q19.5312,-17.9688 17.1875,-29.6875L21.4844,-31.6406Q23.4375,-23.0469 24.6094,-14.8438L19.5312,-13.2812ZM37.5,-33.9844L16.0156,-33.9844L16.0156,-57.0312L37.5,-57.0312L37.5,-33.9844ZM38.6719,-64.4531L14.4531,-64.4531L14.4531,-70.3125L38.6719,-70.3125L38.6719,-64.4531ZM75.3906,-36.3281L70.3125,-36.3281Q70.3125,-38.6719 69.5312,-40.625L74.6094,-40.625Q75,-40.625 75,-52.3438L59.7656,-52.3438L59.7656,-57.0312L75,-57.0312L75,-62.8906L80.0781,-62.8906L80.0781,-57.0312L86.3281,-57.0312L86.3281,-52.3438L80.0781,-52.3438L79.6875,-38.6719Q78.5156,-36.3281 75.3906,-36.3281ZM68.75,-39.8438Q66.4062,-42.9688 60.9375,-47.6562L63.2812,-51.1719Q69.5312,-46.875 71.0938,-44.1406L68.75,-39.8438ZM53.9062,0.390625L49.2188,0.390625L49.2188,-32.8125L64.4531,-32.8125L64.8438,-37.8906L69.5312,-37.8906L68.75,-32.8125L83.5938,-32.8125L83.5938,-6.25Q83.5938,-1.95312 81.4453,-0.976562Q79.2969,-0 72.6562,-0Q72.6562,-2.34375 71.875,-4.6875L74.6094,-4.6875Q71.4844,-7.61719 66.0156,-11.3281Q62.8906,-7.03125 55.8594,-3.90625Q55.0781,-7.42188 54.2969,-7.8125Q62.8906,-11.3281 64.4531,-19.5312L68.75,-19.5312Q68.75,-17.5781 67.5781,-15.2344Q75,-10.5469 77.3438,-8.20312L75.1953,-4.6875L78.125,-4.6875Q78.5156,-4.6875 78.5156,-28.125L67.9688,-28.125L67.1875,-26.5625Q72.2656,-23.8281 78.125,-19.1406L76.1719,-15.2344Q71.875,-19.1406 65.625,-22.6562Q63.2812,-18.3594 55.8594,-15.625Q55.4688,-17.5781 54.2969,-19.5312Q61.3281,-21.875 63.2812,-28.125L53.9062,-28.125L53.9062,0.390625ZM90.2344,2.34375L90.2344,-78.5156L9.76562,-78.5156L9.76562,2.34375L90.2344,2.34375ZM94.9219,7.03125L5.07812,7.03125L5.07812,-82.8125L94.9219,-82.8125L94.9219,7.03125ZM42.1875,-0Q41.0156,-1.95312 37.5977,-4.29688Q38.9648,-6.34766 40.4785,-15.5762Q41.9922,-24.8047 41.7969,-70.3125L61.7188,-70.3125Q61.1328,-72.4609 59.8633,-75.6836L64.8438,-77.3438Q66.5039,-72.6562 67.5781,-70.3125L86.7188,-70.3125L86.7188,-64.8438L47.3633,-64.8438Q47.0703,-39.4531 46.6309,-27.6367Q46.1914,-15.8203 44.9707,-9.86328Q43.75,-3.90625 42.1875,-0ZM37.8906,-9.17969L14.0625,-3.125L13.2812,-9.375Q19.9219,-10.5469 26.9531,-12.5Q29.6875,-24.2188 30.4688,-31.6406L35.5469,-30.0781Q34.7656,-26.1719 33.9844,-21.6797Q33.2031,-17.1875 32.0312,-13.6719L37.5977,-15.332L37.8906,-9.17969Z"></path></svg>